<svg preserveAspectRatio="none" width="100%" height="100%" overflow="visible" style="display: block;" viewBox="0 0 17.9208 17.9199" fill="none" xmlns="http://www.w3.org/2000/svg">
<path id="Icon" d="M13.1104 16.6367C13.451 16.6367 13.7301 16.9106 13.7354 17.2529C13.7404 17.5979 13.4641 17.8816 13.1191 17.8867L10.6475 17.9199C10.6475 17.9199 10.6412 17.9199 10.6387 17.9199C10.2981 17.9197 10.0189 17.6459 10.0137 17.3037C10.0087 16.9587 10.2859 16.6749 10.6309 16.6699L13.1025 16.6367H13.1104ZM6.36914 14.9541C6.70904 14.8942 7.03287 15.1201 7.09375 15.46C7.24958 16.3366 7.77138 16.4921 8.54883 16.6279L8.6543 16.6455C8.99417 16.7064 9.21986 17.0321 9.1582 17.3721C9.10388 17.6744 8.84049 17.8857 8.54395 17.8857C8.50771 17.8857 8.47064 17.8835 8.43359 17.877L8.33398 17.8594C7.63655 17.7377 6.18512 17.4834 5.86328 15.6797C5.80245 15.3397 6.02914 15.0149 6.36914 14.9541ZM17.415 14.9893C17.7541 15.0552 17.975 15.3834 17.9092 15.7217C17.5617 17.5117 16.1096 17.7479 15.4121 17.8604L15.3086 17.877C15.2738 17.8827 15.239 17.8848 15.2051 17.8848V17.8867C14.9051 17.8867 14.6406 17.6701 14.5889 17.3652C14.5322 17.0252 14.7617 16.703 15.1025 16.6455L15.2119 16.627C15.9902 16.5011 16.5134 16.3525 16.6826 15.4834C16.7485 15.1442 17.0767 14.9234 17.415 14.9893ZM6.86133 0C9.73955 1.73904e-09 11.1829 -0.000191411 12.2754 0.890625C12.2779 0.893084 12.2807 0.894985 12.2832 0.897461C12.4763 1.06061 12.6576 1.24379 12.8232 1.44434C13.659 2.45689 13.716 3.80817 13.7197 6.27051C13.7352 6.32348 13.7462 6.37865 13.7471 6.43652C13.7521 6.78146 13.4758 7.06521 13.1309 7.07031L10.6592 7.10352C10.6592 7.10352 10.6529 7.10352 10.6504 7.10352C10.3097 7.10337 10.0304 6.82874 10.0254 6.48633C10.0206 6.14148 10.2977 5.85851 10.6426 5.85352L12.4688 5.82813C12.4555 3.79669 12.3661 2.85224 11.8604 2.23926C11.7446 2.09851 11.6165 1.96972 11.4824 1.85645C10.7341 1.24997 9.43937 1.25 6.8623 1.25C4.2848 1.25 2.98857 1.24978 2.24023 1.85645C2.10786 1.96885 1.98054 2.09788 1.8623 2.24023C1.25147 2.9819 1.25098 4.2784 1.25098 6.8584C1.25098 9.43813 1.25081 10.7342 1.86328 11.4775C1.86578 11.4809 1.8686 11.484 1.87109 11.4873C1.97106 11.6139 2.08921 11.7333 2.24414 11.8633C2.87853 12.3853 3.94072 12.455 5.82617 12.4639L5.84375 10.6563C5.84708 10.313 6.12636 10.0372 6.46875 10.0371H6.47461C6.81945 10.0404 7.09682 10.3222 7.09375 10.667L7.07031 13.085C7.07033 13.0869 7.07129 13.0889 7.07129 13.0908C7.07129 13.0926 7.07033 13.0949 7.07031 13.0967V13.1338C7.06698 13.4771 6.78781 13.7529 6.44531 13.7529H6.43945C6.36859 13.7522 6.30159 13.7372 6.23828 13.7148C3.79733 13.7122 2.45353 13.6534 1.44434 12.8242C1.22025 12.6351 1.04602 12.4592 0.893555 12.2676C0.000263573 11.1785 2.72086e-09 9.73313 0 6.8584C0 3.9834 -3.90472e-05 2.53336 0.897461 1.44336C1.06571 1.24014 1.24775 1.05725 1.43848 0.896484C1.44098 0.893984 1.44379 0.892292 1.44629 0.890625C2.53878 -0.000180934 3.98302 0 6.86133 0ZM17.2754 10.0195C17.6203 10.0229 17.8976 10.3056 17.8945 10.6504L17.8711 13.1172C17.8678 13.4605 17.5886 13.7363 17.2461 13.7363H17.2402C16.8954 13.7328 16.6178 13.4503 16.6211 13.1055L16.6445 10.6387C16.6481 10.2957 16.9273 10.0197 17.2695 10.0195H17.2754ZM15.3164 5.86426L15.4063 5.87988C16.1062 6.00321 17.564 6.25999 17.8857 8.06055C17.9466 8.40055 17.7199 8.7253 17.3799 8.78613C17.3424 8.7928 17.3052 8.7959 17.2686 8.7959C16.9722 8.79569 16.7087 8.58246 16.6553 8.28027C16.4986 7.40444 15.9728 7.24785 15.1895 7.11035L15.0947 7.09375C14.7548 7.03284 14.5292 6.70811 14.5908 6.36816C14.6517 6.02829 14.9765 5.80265 15.3164 5.86426ZM8.42188 5.86328C8.76179 5.80246 9.08748 6.02817 9.14844 6.36719C9.20927 6.70719 8.98272 7.03292 8.64355 7.09375L8.54883 7.11035C7.76562 7.24784 7.24064 7.40438 7.08398 8.2793C7.02975 8.58171 6.76634 8.79395 6.46973 8.79395V8.79492C6.43322 8.79492 6.3967 8.79177 6.35938 8.78516C6.01938 8.72432 5.79352 8.39957 5.85352 8.05957C6.17531 6.25853 7.63116 6.00225 8.33203 5.87891L8.42188 5.86328Z" fill="var(--fill-0, #FB9170)"/>
</svg>
