<svg preserveAspectRatio="none" width="100%" height="100%" overflow="visible" style="display: block;" viewBox="0 0 16.25 17.083" fill="none" xmlns="http://www.w3.org/2000/svg">
<g id="elements">
<path id="Icon" d="M8.55957 12.5C8.73809 12.5 8.90229 12.5004 9.04004 12.5098C9.18808 12.5199 9.35118 12.5428 9.5166 12.6113C9.8738 12.7594 10.1577 13.0431 10.3057 13.4004C10.3741 13.5658 10.3971 13.729 10.4072 13.877C10.4166 14.0145 10.417 14.1782 10.417 14.3564V15.2266C10.417 15.4051 10.4166 15.5693 10.4072 15.707C10.3971 15.8549 10.374 16.0174 10.3057 16.1826C10.1577 16.5399 9.87391 16.8246 9.5166 16.9727C9.35118 17.0412 9.18808 17.0641 9.04004 17.0742C8.9023 17.0836 8.73807 17.083 8.55957 17.083H8.52344C8.34491 17.083 8.18072 17.0836 8.04297 17.0742C7.89513 17.0641 7.73256 17.041 7.56738 16.9727C7.21005 16.8246 6.92536 16.54 6.77734 16.1826C6.70902 16.0174 6.68588 15.8549 6.67578 15.707C6.66984 15.6199 6.66877 15.5221 6.66797 15.417H0.625C0.279931 15.417 0.000176194 15.137 0 14.792C0 14.4468 0.279822 14.167 0.625 14.167H6.66797C6.66876 14.0618 6.66985 13.9641 6.67578 13.877C6.68588 13.729 6.7089 13.5657 6.77734 13.4004C6.92536 13.0431 7.21005 12.7593 7.56738 12.6113C7.73262 12.5429 7.89507 12.5199 8.04297 12.5098C8.18072 12.5004 8.34491 12.5 8.52344 12.5H8.55957ZM8.12793 13.7568C8.07328 13.7606 8.0495 13.765 8.04297 13.7666C7.99397 13.7877 7.95467 13.827 7.93359 13.876C7.93204 13.8821 7.92665 13.9062 7.92285 13.9619C7.91673 14.0519 7.91699 14.1726 7.91699 14.375V15.208C7.91699 15.4107 7.91671 15.5321 7.92285 15.6221C7.92661 15.677 7.93198 15.7006 7.93359 15.707C7.95466 15.7561 7.99394 15.7953 8.04297 15.8164C8.04939 15.818 8.07303 15.8234 8.12793 15.8271C8.21794 15.8333 8.3393 15.833 8.54199 15.833C8.74447 15.833 8.86512 15.8333 8.95508 15.8271C9.01077 15.8233 9.03489 15.818 9.04102 15.8164C9.08987 15.7953 9.1284 15.7559 9.14941 15.707C9.151 15.7007 9.15638 15.6772 9.16016 15.6221C9.1663 15.5321 9.16699 15.4107 9.16699 15.208V14.375C9.16699 14.1726 9.16628 14.0519 9.16016 13.9619C9.15636 13.9062 9.15097 13.8821 9.14941 13.876C9.12836 13.8271 9.08985 13.7877 9.04102 13.7666C9.03489 13.765 9.01076 13.7606 8.95508 13.7568C8.86512 13.7507 8.74449 13.75 8.54199 13.75C8.3393 13.75 8.21794 13.7507 8.12793 13.7568ZM15.625 14.167C15.9702 14.167 16.25 14.4468 16.25 14.792C16.2498 15.137 15.9701 15.417 15.625 15.417H12.292C11.9469 15.417 11.6672 15.137 11.667 14.792C11.667 14.4468 11.9468 14.167 12.292 14.167H15.625ZM6.05957 6.25C6.23809 6.24999 6.40229 6.25037 6.54004 6.25977C6.68808 6.26987 6.85118 6.29281 7.0166 6.36133C7.37381 6.50937 7.65769 6.79315 7.80566 7.15039C7.87414 7.31577 7.89713 7.47895 7.90723 7.62695C7.91316 7.71412 7.91522 7.81179 7.91602 7.91699H15.625C15.9702 7.91699 16.25 8.19681 16.25 8.54199C16.2498 8.88702 15.9701 9.16699 15.625 9.16699H7.91602C7.91522 9.27213 7.91317 9.36993 7.90723 9.45703C7.89713 9.6049 7.87403 9.76741 7.80566 9.93262C7.65766 10.2899 7.37391 10.5746 7.0166 10.7227C6.85118 10.7912 6.68808 10.8141 6.54004 10.8242C6.4023 10.8336 6.23807 10.833 6.05957 10.833H6.02344C5.84491 10.833 5.68072 10.8336 5.54297 10.8242C5.39513 10.8141 5.23256 10.791 5.06738 10.7227C4.71005 10.5746 4.42536 10.29 4.27734 9.93262C4.20902 9.76744 4.18588 9.60487 4.17578 9.45703C4.16638 9.31928 4.16698 9.15509 4.16699 8.97656V8.10645C4.16698 7.92825 4.16642 7.76452 4.17578 7.62695C4.18588 7.47899 4.2089 7.31573 4.27734 7.15039C4.42536 6.79306 4.71005 6.50934 5.06738 6.36133C5.23262 6.29293 5.39507 6.26987 5.54297 6.25977C5.68072 6.25037 5.84491 6.24999 6.02344 6.25H6.05957ZM5.62793 7.50684C5.57328 7.51058 5.5495 7.51497 5.54297 7.5166C5.49397 7.53765 5.45467 7.577 5.43359 7.62598C5.43204 7.63211 5.42665 7.65622 5.42285 7.71191C5.41673 7.80188 5.41699 7.92257 5.41699 8.125V8.95801C5.41699 9.1607 5.41671 9.28207 5.42285 9.37207C5.42661 9.42697 5.43198 9.45061 5.43359 9.45703C5.45466 9.50606 5.49394 9.54534 5.54297 9.56641C5.54939 9.56802 5.57303 9.57339 5.62793 9.57715C5.71794 9.58329 5.8393 9.58301 6.04199 9.58301C6.24447 9.58301 6.36512 9.58328 6.45508 9.57715C6.51077 9.57335 6.53489 9.56796 6.54102 9.56641C6.58987 9.5453 6.6284 9.50593 6.64941 9.45703C6.651 9.45073 6.65638 9.42718 6.66016 9.37207C6.6663 9.28207 6.66699 9.1607 6.66699 8.95801V8.125C6.66699 7.92255 6.66628 7.80189 6.66016 7.71191C6.65636 7.65622 6.65097 7.63211 6.64941 7.62598C6.62836 7.57714 6.58985 7.53766 6.54102 7.5166C6.53489 7.51505 6.51076 7.51064 6.45508 7.50684C6.36512 7.5007 6.24449 7.5 6.04199 7.5C5.8393 7.5 5.71794 7.5007 5.62793 7.50684ZM2.29199 7.91699C2.63702 7.91717 2.91699 8.19692 2.91699 8.54199C2.91682 8.88691 2.63691 9.16682 2.29199 9.16699H0.625C0.279931 9.16699 0.000176194 8.88702 0 8.54199C0 8.19681 0.279822 7.91699 0.625 7.91699H2.29199ZM10.2266 4.02576e-07C10.4051 -1.02661e-05 10.5693 0.000367686 10.707 0.00976603C10.8549 0.0198684 11.0174 0.0429334 11.1826 0.111329C11.5399 0.259341 11.8246 0.543058 11.9727 0.900391C12.0411 1.06573 12.0641 1.22899 12.0742 1.37695C12.0836 1.51452 12.083 1.67825 12.083 1.85645V2.72656C12.083 2.90509 12.0836 3.06928 12.0742 3.20703C12.0641 3.35487 12.041 3.51744 11.9727 3.68262C11.8246 4.03995 11.5399 4.32464 11.1826 4.47266C11.0174 4.54099 10.8549 4.56412 10.707 4.57422C10.5693 4.58362 10.4051 4.58302 10.2266 4.58301H10.1904C10.0119 4.58302 9.8477 4.58361 9.70996 4.57422C9.56192 4.56412 9.39882 4.54118 9.2334 4.47266C8.87609 4.32464 8.59234 4.03994 8.44434 3.68262C8.37597 3.51741 8.35287 3.3549 8.34277 3.20703C8.33683 3.11993 8.33478 3.02213 8.33398 2.91699H0.625C0.27993 2.91699 0.000175936 2.63702 0 2.29199C0 1.94681 0.279822 1.66699 0.625 1.66699H8.33398C8.33478 1.56179 8.33684 1.46412 8.34277 1.37695C8.35287 1.22895 8.37585 1.06577 8.44434 0.900391C8.59231 0.543149 8.87619 0.259372 9.2334 0.111329C9.39882 0.0428095 9.56192 0.0198664 9.70996 0.00976603C9.84771 0.000373448 10.0119 -1.02815e-05 10.1904 4.02576e-07H10.2266ZM9.79492 1.25684C9.73924 1.26064 9.71511 1.26505 9.70898 1.2666C9.66015 1.28766 9.62164 1.32714 9.60059 1.37598C9.59903 1.38211 9.59364 1.40622 9.58984 1.46191C9.58372 1.55189 9.58301 1.67255 9.58301 1.875V2.70801C9.58301 2.9107 9.5837 3.03207 9.58984 3.12207C9.59362 3.17718 9.599 3.20073 9.60059 3.20703C9.6216 3.25594 9.66013 3.29531 9.70898 3.31641C9.71511 3.31796 9.73923 3.32335 9.79492 3.32715C9.88488 3.33328 10.0055 3.33301 10.208 3.33301C10.4107 3.33301 10.5321 3.33329 10.6221 3.32715C10.677 3.32339 10.7006 3.31802 10.707 3.31641C10.7561 3.29534 10.7953 3.25606 10.8164 3.20703C10.818 3.20061 10.8234 3.17697 10.8271 3.12207C10.8333 3.03207 10.833 2.9107 10.833 2.70801V1.875C10.833 1.67257 10.8333 1.55188 10.8271 1.46191C10.8233 1.40622 10.818 1.38211 10.8164 1.37598C10.7953 1.327 10.756 1.28765 10.707 1.2666C10.7005 1.26497 10.6767 1.26058 10.6221 1.25684C10.5321 1.2507 10.4107 1.25 10.208 1.25C10.0055 1.25 9.88488 1.2507 9.79492 1.25684ZM15.625 1.66699C15.9702 1.66699 16.25 1.94681 16.25 2.29199C16.2498 2.63702 15.9701 2.91699 15.625 2.91699H13.958C13.6131 2.91682 13.3332 2.63691 13.333 2.29199C13.333 1.94692 13.613 1.66717 13.958 1.66699H15.625Z" fill="var(--fill-0, #FAFAFA)"/>
</g>
</svg>
